<svg width="316" height="45" viewBox="0 0 316 45" fill="none" xmlns="http://www.w3.org/2000/svg">
<path d="M13.218 24.9184H5.17455V35.639H0V9.36096H14.186V13.7828H5.17455V20.5147H13.218V24.9184Z" fill="black"/>
<path d="M24.9047 26.0374H22.335V35.639H17.1605V9.36096H25.4151C28.0083 9.36096 30.0089 10.0528 31.4169 11.4365C32.8367 12.8082 33.5466 14.7634 33.5466 17.3021C33.5466 20.7914 32.3087 23.234 29.8328 24.6297L34.321 35.3864V35.639H28.7592L24.9047 26.0374ZM22.335 21.6156H25.2743C26.3069 21.6156 27.0813 21.2667 27.5976 20.5688C28.1139 19.859 28.372 18.9144 28.372 17.7353C28.372 15.1003 27.3688 13.7828 25.3623 13.7828H22.335V21.6156Z" fill="black"/>
<path d="M50.3374 24.2687H42.2764V31.2353H51.8159V35.639H37.1019V9.36096H51.7807V13.7828H42.2764V19.9913H50.3374V24.2687Z" fill="black"/>
<path d="M68.0435 24.2687H59.9825V31.2353H69.522V35.639H54.808V9.36096H69.4868V13.7828H59.9825V19.9913H68.0435V24.2687Z" fill="black"/>
<path d="M77.6886 31.2353H86.7705V35.639H72.5141V9.36096H77.6886V31.2353Z" fill="black"/>
<path d="M102.347 30.2607H95.2891L93.9163 35.639H88.4425L96.4507 9.36096H101.185L109.246 35.639H103.72L102.347 30.2607ZM96.4155 25.8389H101.203L98.8092 16.4719L96.4155 25.8389Z" fill="black"/>
<path d="M129.575 35.639H124.4L116.832 18.4031V35.639H111.658V9.36096H116.832L124.418 26.615V9.36096H129.575V35.639Z" fill="black"/>
<path d="M151.1 26.8857C150.971 29.8817 150.15 32.1497 148.636 33.6898C147.123 35.2299 144.987 36 142.23 36C139.331 36 137.108 35.0254 135.559 33.0762C134.022 31.115 133.253 28.3235 133.253 24.7019V20.2801C133.253 16.6705 134.051 13.891 135.647 11.9418C137.243 9.98061 139.46 9 142.3 9C145.093 9 147.211 9.80013 148.654 11.4004C150.109 13.0007 150.936 15.2988 151.135 18.2948H145.943C145.896 16.4418 145.615 15.1664 145.099 14.4686C144.594 13.7587 143.661 13.4037 142.3 13.4037C140.915 13.4037 139.936 13.9031 139.361 14.9017C138.786 15.8884 138.481 17.5187 138.446 19.7928V24.756C138.446 27.367 138.727 29.1598 139.29 30.1344C139.865 31.109 140.845 31.5963 142.23 31.5963C143.591 31.5963 144.529 31.2594 145.046 30.5856C145.562 29.8997 145.855 28.6664 145.926 26.8857H151.1Z" fill="black"/>
<path d="M167.522 24.2687H159.461V31.2353H169V35.639H154.286V9.36096H168.965V13.7828H159.461V19.9913H167.522V24.2687Z" fill="black"/>
<path d="M217.535 35.2141C217.535 35.4156 217.46 35.5542 217.312 35.6297C217.188 35.7053 217.164 35.8816 217.238 36.1587C217.04 36.1839 216.867 36.2846 216.719 36.461C216.57 36.6373 216.397 36.7254 216.199 36.7254C216.076 36.7254 215.977 36.6625 215.903 36.5365C215.853 36.7128 215.754 36.8388 215.606 36.9144C215.482 36.9899 215.346 37.0529 215.198 37.1033C215.05 37.1537 214.901 37.2166 214.753 37.2922C214.605 37.3678 214.506 37.4811 214.456 37.6322H214.271C213.974 37.6322 213.739 37.7582 213.566 38.0101C213.418 38.262 213.232 38.3879 213.01 38.3879C212.936 38.3879 212.886 38.3753 212.862 38.3501C212.738 38.3753 212.689 38.4509 212.713 38.5768C212.738 38.728 212.701 38.8287 212.602 38.8791H212.417C211.774 38.8791 211.119 39.0176 210.451 39.2947C209.783 39.5718 209.103 39.8867 208.411 40.2393C207.744 40.5919 207.051 40.9194 206.334 41.2217C205.642 41.5491 204.937 41.7632 204.22 41.864C204.072 42.0151 203.887 42.1285 203.664 42.204C203.466 42.3048 203.244 42.3803 202.997 42.4307C202.749 42.4811 202.502 42.5315 202.255 42.5819C202.032 42.6574 201.834 42.7708 201.661 42.9219C201.043 42.9723 200.425 43.0856 199.807 43.262C199.189 43.4383 198.571 43.602 197.953 43.7531C197.359 43.9295 196.741 44.068 196.098 44.1688C195.48 44.2947 194.85 44.3325 194.207 44.2821C194.009 44.4332 193.787 44.5466 193.539 44.6222C193.317 44.7229 193.107 44.8489 192.909 45C191.895 44.8489 190.881 44.7355 189.868 44.66C188.879 44.5844 187.902 44.4081 186.938 44.131C186.938 44.0554 186.913 44.005 186.864 43.9798C186.814 43.9547 186.752 43.9295 186.678 43.9043C186.629 43.9043 186.579 43.8791 186.53 43.8287C186.481 43.8035 186.481 43.7406 186.53 43.6398C186.307 43.7154 186.11 43.7531 185.937 43.7531C185.689 43.7531 185.442 43.6902 185.195 43.5642C184.972 43.4383 184.725 43.2997 184.453 43.1486C184.206 42.9975 183.946 42.8463 183.674 42.6952C183.402 42.5693 183.106 42.5063 182.784 42.5063C182.586 42.3048 182.401 42.1033 182.228 41.9018C182.08 41.7003 181.968 41.4484 181.894 41.1461C181.795 41.1209 181.684 41.1209 181.56 41.1461C181.461 41.1713 181.375 41.1839 181.301 41.1839C181.152 41.1839 181.078 41.1335 181.078 41.0327C180.559 40.6549 180.188 40.2519 179.966 39.8237C179.743 39.3955 179.496 38.9043 179.224 38.3501C179.15 38.1738 179.051 38.0227 178.927 37.8967C178.828 37.796 178.754 37.67 178.705 37.5189C178.606 37.267 178.544 37.0025 178.519 36.7254C178.494 36.4484 178.47 36.1839 178.445 35.932C178.445 35.6549 178.408 35.3904 178.334 35.1385C178.284 34.8615 178.173 34.6096 178 34.3829C178.049 33.4257 178.148 32.4685 178.297 31.5113C178.47 30.5542 178.68 29.597 178.927 28.6398C179.026 28.2116 179.137 27.796 179.261 27.3929C179.385 26.9899 179.496 26.5743 179.595 26.1461C179.619 25.995 179.657 25.8942 179.706 25.8438C179.78 25.7683 179.842 25.7179 179.891 25.6927L180.04 25.5793C180.089 25.529 180.126 25.4534 180.151 25.3526L180.448 24.068C180.646 23.2368 180.905 22.4307 181.227 21.6499C181.548 20.869 181.981 20.1511 182.525 19.4962C182.574 18.8665 182.71 18.2746 182.933 17.7204C183.18 17.1411 183.452 16.5869 183.748 16.0579C184.045 15.5038 184.342 14.9622 184.639 14.4332C184.935 13.9043 185.17 13.3375 185.343 12.733L185.306 12.6574C185.306 12.5567 185.356 12.5063 185.454 12.5063C185.578 12.4811 185.665 12.4685 185.714 12.4685C185.739 12.0655 185.825 11.7254 185.974 11.4484C186.147 11.1461 186.32 10.869 186.493 10.6171C186.691 10.3652 186.864 10.1008 187.012 9.82368C187.185 9.52141 187.284 9.16877 187.309 8.76574C187.779 8.48867 188.174 8.14861 188.496 7.74559C188.842 7.31738 189.163 6.88917 189.46 6.46096C189.781 6.00756 190.115 5.57934 190.461 5.17632C190.807 4.74811 191.228 4.40806 191.722 4.15617C191.846 4.00504 191.883 3.79093 191.833 3.51385C192.6 2.93451 193.391 2.41814 194.207 1.96474C195.023 1.51134 195.789 0.982368 196.506 0.377834H197.841C198.163 0.125945 198.521 0 198.917 0C199.214 0 199.498 0.0629723 199.77 0.188917C200.067 0.314861 200.339 0.465995 200.586 0.642317C200.858 0.793451 201.13 0.957179 201.402 1.1335C201.674 1.28463 201.946 1.39798 202.218 1.47355C202.49 1.85139 202.675 2.29219 202.774 2.79597C202.898 3.27456 203.021 3.72796 203.145 4.15617C202.922 4.83627 202.786 5.54156 202.737 6.27204C202.687 6.97733 202.601 7.68262 202.477 8.38791C202.304 8.58942 202.156 8.81612 202.032 9.06801C201.909 9.29471 201.773 9.534 201.624 9.78589C201.501 10.0126 201.365 10.2393 201.216 10.466C201.068 10.6675 200.87 10.8312 200.623 10.9572C200.425 11.6877 200.116 12.267 199.696 12.6952C199.275 13.1234 198.868 13.6272 198.472 14.2065C198.101 14.4584 197.705 14.5844 197.285 14.5844C196.939 14.5844 196.63 14.5088 196.358 14.3577C196.086 14.1814 195.839 13.9673 195.616 13.7154C195.394 13.4383 195.208 13.1486 195.06 12.8463C194.936 12.5189 194.837 12.204 194.763 11.9018C194.936 11.3728 195.208 10.9194 195.579 10.5416C195.975 10.1637 196.37 9.78589 196.766 9.40806C197.162 9.03023 197.508 8.6272 197.804 8.19899C198.101 7.77078 198.249 7.25441 198.249 6.64987C198.249 6.5995 198.237 6.54912 198.212 6.49874C198.212 6.44836 198.212 6.39798 198.212 6.34761C198.212 6.24685 198.249 6.15869 198.324 6.08312C198.398 6.00756 198.472 5.94458 198.546 5.89421L198.769 5.70529C198.843 5.62972 198.88 5.54156 198.88 5.44081C198.88 5.34005 198.83 5.2393 198.732 5.13854C197.792 5.21411 197.075 5.37783 196.58 5.62972C196.111 5.88161 195.74 6.15869 195.468 6.46096C195.196 6.76322 194.949 7.06549 194.726 7.36776C194.528 7.64484 194.232 7.84635 193.836 7.97229C193.762 8.1738 193.651 8.35013 193.502 8.50126C193.379 8.6272 193.243 8.76574 193.094 8.91688C192.946 9.04282 192.81 9.19395 192.686 9.37028C192.587 9.5466 192.526 9.7607 192.501 10.0126H191.833C191.734 10.2393 191.586 10.466 191.388 10.6927C191.215 10.8942 191.03 11.0957 190.832 11.2972C190.659 11.4987 190.498 11.7254 190.35 11.9773C190.226 12.204 190.189 12.4559 190.239 12.733C189.967 12.8338 189.757 12.9975 189.608 13.2242C189.485 13.4509 189.299 13.6398 189.052 13.7909V14.0176C189.052 14.2191 189.015 14.4081 188.941 14.5844C188.866 14.7607 188.854 14.9496 188.904 15.1511C188.607 15.4282 188.384 15.7809 188.236 16.2091C188.112 16.6121 187.976 16.9899 187.828 17.3426C187.482 17.5189 187.247 17.7582 187.123 18.0605C187 18.3627 186.938 18.7154 186.938 19.1184C186.567 19.4962 186.233 19.937 185.937 20.4408C185.64 20.9446 185.368 21.461 185.121 21.9899C184.898 22.5189 184.688 23.0605 184.49 23.6146C184.292 24.1688 184.082 24.6851 183.86 25.1637V26.2594C183.514 26.6625 183.266 27.1411 183.118 27.6952C182.994 28.2242 182.797 28.7028 182.525 29.131C182.475 29.4081 182.45 29.6851 182.45 29.9622C182.475 30.2393 182.488 30.5164 182.488 30.7934C182.488 31.0957 182.463 31.4106 182.413 31.738C182.364 32.0655 182.277 32.3678 182.154 32.6448C182.253 33.0227 182.327 33.4761 182.376 34.005C182.426 34.5088 182.512 35.0252 182.636 35.5542C182.759 36.0579 182.933 36.5239 183.155 36.9521C183.378 37.3552 183.699 37.6322 184.119 37.7834C184.218 38.3375 184.453 38.7531 184.824 39.0302C185.22 39.3325 185.665 39.5718 186.159 39.7481C186.654 39.9244 187.16 40.0756 187.68 40.2015C188.199 40.3526 188.656 40.5416 189.052 40.7683C189.2 40.6927 189.373 40.6549 189.571 40.6549C189.769 40.6549 189.942 40.6801 190.09 40.7305C190.263 40.7809 190.449 40.8312 190.647 40.8816C190.993 40.8312 191.413 40.806 191.908 40.806C192.427 40.806 192.946 40.7809 193.465 40.7305C193.984 40.7053 194.467 40.6423 194.912 40.5416C195.357 40.4408 195.715 40.2519 195.987 39.9748C196.16 39.9748 196.271 40.0252 196.321 40.1259C196.395 40.2267 196.519 40.2771 196.692 40.2771C196.865 40.2771 197.124 40.2267 197.471 40.1259C197.817 40.0504 198.175 39.9496 198.546 39.8237C198.917 39.7229 199.263 39.6096 199.585 39.4836C199.931 39.3577 200.178 39.2443 200.326 39.1436C200.4 39.1688 200.475 39.1814 200.549 39.1814H200.808C201.155 39.1814 201.476 39.1184 201.773 38.9924C202.069 38.8665 202.391 38.8287 202.737 38.8791C203.874 38.2997 205.024 37.796 206.186 37.3678C207.373 36.9647 208.572 36.5995 209.783 36.272C209.932 36.0453 210.105 35.8816 210.303 35.7809C210.525 35.6801 210.76 35.6045 211.007 35.5542C211.255 35.4786 211.502 35.4282 211.749 35.403C211.996 35.3526 212.231 35.2897 212.454 35.2141C212.602 35.1385 212.726 35.0504 212.825 34.9496C212.948 34.8237 213.096 34.7229 213.27 34.6474C213.443 34.5718 213.628 34.5214 213.826 34.4962C214.048 34.471 214.259 34.4458 214.456 34.4207C214.679 34.3703 214.877 34.3073 215.05 34.2317C215.248 34.1562 215.408 34.0302 215.532 33.8539C215.878 34.005 216.224 34.1688 216.57 34.3451C216.941 34.5214 217.25 34.7733 217.497 35.1008L217.535 35.2141Z" fill="white"/>
<path d="M235.077 19.7229C234.978 19.9748 234.879 20.2141 234.78 20.4408C234.681 20.6675 234.607 20.9194 234.557 21.1965C234.384 21.3224 234.187 21.4232 233.964 21.4987C233.766 21.5491 233.556 21.6121 233.334 21.6877C233.111 21.738 232.901 21.8136 232.703 21.9144C232.53 21.9899 232.394 22.1159 232.295 22.2922C232.221 22.67 232.184 23.0227 232.184 23.3501C232.184 23.7783 232.258 24.1436 232.406 24.4458C232.332 24.6725 232.283 24.9118 232.258 25.1637C232.233 25.4156 232.221 25.6549 232.221 25.8816C232.221 26.7128 232.32 27.5441 232.518 28.3753C232.715 29.1814 232.827 30 232.851 30.8312C232.851 30.9572 232.839 31.0957 232.814 31.2469C232.79 31.398 232.777 31.5365 232.777 31.6625C232.777 32.1914 232.975 32.5441 233.371 32.7204C233.296 32.8463 233.259 32.9597 233.259 33.0605C233.259 33.262 233.284 33.4383 233.334 33.5894C233.383 33.7406 233.395 33.9043 233.371 34.0806C233.494 34.3325 233.618 34.5592 233.741 34.7607C233.865 34.937 233.952 35.1637 234.001 35.4408C233.828 35.7934 233.618 36.1209 233.371 36.4232C233.123 36.7002 232.95 37.0529 232.851 37.4811C232.752 37.4559 232.641 37.4433 232.518 37.4433C232.345 37.4433 232.209 37.4811 232.11 37.5567C232.011 37.6322 231.924 37.7204 231.85 37.8212C231.801 37.9471 231.739 38.0605 231.665 38.1612C231.59 38.2872 231.492 38.3753 231.368 38.4257H231.257C231.133 38.4509 231.022 38.4383 230.923 38.3879C230.849 38.3627 230.775 38.3501 230.7 38.3501C230.651 38.3501 230.552 38.3753 230.404 38.4257C230.206 38.1738 230.07 37.8715 229.996 37.5189C229.922 37.1914 229.884 36.864 229.884 36.5365C229.884 36.1839 229.934 35.869 230.033 35.5919C229.761 35.3652 229.588 35.0252 229.514 34.5718C229.464 34.1184 229.402 33.7406 229.328 33.4383C229.13 32.5063 228.895 31.5995 228.623 30.7179C228.376 29.8363 228.228 28.9295 228.178 27.9975C228.154 27.6448 228.141 27.3048 228.141 26.9773V25.0126C228.141 24.6851 228.154 24.3703 228.178 24.068C228.178 23.8413 228.191 23.6272 228.216 23.4257C228.265 23.199 228.29 22.9723 228.29 22.7456C228.29 22.4433 228.191 22.1537 227.993 21.8766C226.238 21.9521 224.569 22.2796 222.986 22.8589C221.429 23.4131 219.871 24.0806 218.313 24.8615C218.214 25.4408 218.153 26.0076 218.128 26.5617C218.103 27.1159 218.091 27.6826 218.091 28.262V29.9244C218.091 30.5542 218.116 31.0831 218.165 31.5113C218.289 32.2418 218.647 32.8086 219.241 33.2116C219.859 33.5894 220.477 33.8791 221.095 34.0806C221.07 34.4584 220.996 34.7859 220.872 35.063C220.749 35.3149 220.588 35.5542 220.39 35.7809C220.217 35.9824 220.019 36.1839 219.797 36.3854C219.574 36.5869 219.352 36.8136 219.129 37.0655C218.931 36.9395 218.734 36.8514 218.536 36.801C218.338 36.7506 218.128 36.7254 217.905 36.7254C217.683 36.7003 217.46 36.6751 217.238 36.6499C217.015 36.6247 216.793 36.5743 216.57 36.4987L215.754 35.3652C215.482 34.9874 215.186 34.6096 214.864 34.2317V33.8917C214.864 33.2116 214.741 32.5567 214.493 31.9269C214.246 31.2972 214.061 30.6549 213.937 30C214.011 29.7733 214.061 29.5466 214.085 29.3199C214.11 29.0932 214.123 28.8539 214.123 28.602C214.123 28.0982 214.098 27.6071 214.048 27.1285C214.024 26.6499 214.036 26.1713 214.085 25.6927H213.9C213.678 25.6927 213.443 25.7557 213.195 25.8816C212.948 25.9824 212.701 26.1083 212.454 26.2594C212.231 26.3854 212.009 26.5113 211.786 26.6373C211.588 26.738 211.415 26.7884 211.267 26.7884C211.193 26.7884 211.119 26.7758 211.044 26.7506C210.97 26.7254 210.884 26.7128 210.785 26.7128C210.661 26.7128 210.513 26.7632 210.34 26.864C210.167 26.9647 209.981 27.0781 209.783 27.204C209.561 27.3048 209.338 27.4055 209.116 27.5063C208.893 27.6071 208.671 27.6574 208.448 27.6574C208.102 27.6574 207.756 27.5063 207.41 27.204C207.36 27.0025 207.348 26.8136 207.373 26.6373C207.373 26.461 207.373 26.272 207.373 26.0705C207.373 25.869 207.336 25.6549 207.261 25.4282C207.435 25.1008 207.669 24.8489 207.966 24.6725C208.238 24.471 208.535 24.2947 208.856 24.1436C209.153 23.9673 209.462 23.8035 209.783 23.6524C210.105 23.4761 210.377 23.2494 210.599 22.9723H210.822C211.168 22.9723 211.477 22.8967 211.749 22.7456C212.046 22.5945 212.379 22.5315 212.75 22.5567C212.874 22.5063 212.96 22.3174 213.01 21.9899L213.158 22.0277C213.702 22.0277 214.184 21.8388 214.605 21.461C214.877 19.8992 215.099 18.3249 215.272 16.738C215.445 15.1511 215.532 13.5642 215.532 11.9773C215.532 11.8262 215.482 11.6751 215.383 11.5239C215.334 11.3224 215.309 11.1335 215.309 10.9572V10.3904C215.309 10.1133 215.322 9.82368 215.346 9.52141C215.371 9.21914 215.433 8.91688 215.532 8.61461C215.779 8.46348 216.039 8.38791 216.311 8.38791C216.632 8.38791 216.941 8.43829 217.238 8.53904C217.559 8.61461 217.868 8.67758 218.165 8.72796C218.388 8.95466 218.548 9.20655 218.647 9.48363C218.771 9.7607 218.845 10.0504 218.87 10.3526C218.894 10.6297 218.894 10.9194 218.87 11.2217C218.87 11.4987 218.87 11.7758 218.87 12.0529C218.87 12.6071 218.931 13.1486 219.055 13.6776C219.179 14.2065 219.241 14.7229 219.241 15.2267C219.241 15.3526 219.191 15.4534 219.092 15.529C219.018 15.5793 218.981 15.7431 218.981 16.0201C218.981 16.2972 219.006 16.5869 219.055 16.8892C219.105 17.1914 219.129 17.4937 219.129 17.796C219.129 18.1486 219.08 18.5139 218.981 18.8917C218.882 19.2695 218.795 19.6348 218.721 19.9874C220.205 19.8615 221.725 19.6725 223.283 19.4207C224.841 19.1688 226.324 18.7657 227.733 18.2116C227.758 18.1612 227.77 18.0856 227.77 17.9849C227.77 17.8338 227.758 17.6826 227.733 17.5315C227.709 17.3804 227.696 17.2166 227.696 17.0403C227.696 16.738 227.795 16.4987 227.993 16.3224C227.869 15.6171 227.783 14.9118 227.733 14.2065C227.684 13.5013 227.659 12.796 227.659 12.0907V9.93703C227.659 9.23174 227.647 8.52645 227.622 7.82116C227.82 7.69521 228.03 7.63224 228.253 7.63224C228.525 7.63224 228.772 7.70781 228.994 7.85894C229.242 7.98489 229.526 8.04786 229.847 8.04786C230.07 8.04786 230.255 8.01007 230.404 7.93451C230.676 8.1864 230.861 8.51385 230.96 8.91688C231.059 9.3199 231.145 9.73552 231.22 10.1637C231.294 10.5919 231.368 11.0202 231.442 11.4484C231.541 11.8514 231.726 12.1788 231.998 12.4307L232.035 12.5441C232.035 12.6448 231.986 12.7204 231.887 12.7708C231.788 12.8212 231.739 12.9219 231.739 13.073V13.2242C231.838 13.6272 231.912 14.0428 231.961 14.471C232.011 14.8992 232.048 15.3401 232.073 15.7935C232.122 16.2217 232.184 16.6499 232.258 17.0781C232.332 17.4811 232.468 17.8589 232.666 18.2116C232.79 18.1864 232.95 18.1738 233.148 18.1738C233.643 18.1738 234.026 18.3501 234.298 18.7028C234.594 19.0302 234.854 19.3703 235.077 19.7229Z" fill="white"/>
<path d="M260.926 13.3375V13.4887C260.753 13.539 260.666 13.665 260.666 13.8665C260.395 13.9924 260.11 14.0932 259.813 14.1688C259.517 14.2191 259.232 14.3073 258.96 14.4332C258.689 14.4081 258.404 14.3955 258.107 14.3955C257.836 14.3703 257.564 14.3577 257.292 14.3577C256.55 14.3577 255.808 14.3829 255.066 14.4332C254.325 14.4836 253.583 14.4836 252.841 14.4332C252.495 14.6348 252.112 14.7985 251.691 14.9244C251.296 15.0252 250.913 15.0756 250.542 15.0756C250.245 15.0756 249.985 15.0378 249.763 14.9622C249.17 15.2645 248.514 15.5164 247.797 15.7179C247.105 15.9194 246.4 16.1209 245.683 16.3224C244.966 16.4987 244.274 16.7128 243.607 16.9647C242.964 17.1914 242.395 17.5189 241.901 17.9471C241.851 18.2997 241.814 18.6524 241.789 19.005C241.765 19.3325 241.752 19.6599 241.752 19.9874C241.752 20.34 241.765 20.6675 241.789 20.9698C241.839 21.272 241.925 21.5743 242.049 21.8766C242.173 21.927 242.309 21.9647 242.457 21.9899C242.63 22.0151 242.778 22.0277 242.902 22.0277C243.026 22.0277 243.149 22.0151 243.273 21.9899C243.396 21.9395 243.483 21.8514 243.532 21.7254C243.903 21.6751 244.274 21.6625 244.645 21.6877C245.016 21.6877 245.387 21.6877 245.758 21.6877C246.128 21.6877 246.487 21.6751 246.833 21.6499C247.204 21.6247 247.562 21.5617 247.909 21.461C248.304 21.3602 248.687 21.2972 249.058 21.272C249.454 21.2469 249.837 21.2217 250.208 21.1965C250.579 21.1713 250.962 21.1335 251.358 21.0831C251.753 21.0076 252.161 20.869 252.582 20.6675C252.903 20.7934 253.224 20.8564 253.546 20.8564C253.892 20.8564 254.226 20.8816 254.547 20.932C254.72 21.0579 254.856 21.1965 254.955 21.3476C255.079 21.4987 255.141 21.6751 255.141 21.8766C255.141 22.2292 255.017 22.5819 254.77 22.9345C254.522 23.2872 254.325 23.6146 254.176 23.9169H253.768C253.175 23.9169 252.594 24.005 252.025 24.1814C251.481 24.3325 250.925 24.5214 250.356 24.7481C249.812 24.9496 249.256 25.1385 248.687 25.3149C248.144 25.466 247.575 25.5416 246.981 25.5416C246.883 25.5416 246.821 25.6045 246.796 25.7305C246.796 25.8312 246.771 25.9068 246.722 25.9572C246.598 25.932 246.413 25.9194 246.166 25.9194C245.597 25.9194 245.053 25.9824 244.534 26.1083C244.015 26.2343 243.483 26.2972 242.939 26.2972C242.791 26.2972 242.642 26.2972 242.494 26.2972C242.346 26.272 242.197 26.2468 242.049 26.2217C241.925 26.4232 241.765 26.5617 241.567 26.6373C241.369 26.6877 241.184 26.7884 241.01 26.9395C240.936 27.1662 240.887 27.4433 240.862 27.7708C240.862 28.0982 240.85 28.4383 240.825 28.7909C240.825 29.1184 240.8 29.4332 240.751 29.7355C240.701 30.0378 240.603 30.2771 240.454 30.4534C240.479 30.5793 240.578 30.6297 240.751 30.6045C240.924 30.5542 241.01 30.6297 241.01 30.8312C241.01 31.0579 240.986 31.2972 240.936 31.5491C240.887 31.801 240.862 32.0529 240.862 32.3048C240.862 32.7834 240.912 33.3123 241.01 33.8917C241.134 34.4458 241.307 34.9622 241.53 35.4408C241.777 35.9194 242.098 36.3224 242.494 36.6499C242.89 36.9521 243.384 37.1033 243.977 37.1033C244.373 37.1033 244.744 37.0277 245.09 36.8766C245.436 36.7254 245.721 36.4736 245.943 36.1209L246.128 36.0831C246.227 36.0831 246.314 36.0957 246.388 36.1209C246.487 36.1461 246.586 36.1587 246.685 36.1587C246.833 36.1587 247.019 36.0705 247.241 35.8942C247.488 35.6927 247.748 35.466 248.02 35.2141C248.317 34.9622 248.613 34.7229 248.91 34.4962C249.207 34.2443 249.491 34.068 249.763 33.9673C249.936 33.6146 250.097 33.262 250.245 32.9093C250.418 32.5567 250.665 32.2796 250.987 32.0781V30.9824C251.234 30.7053 251.494 30.4534 251.766 30.2267C252.062 30 252.285 29.7103 252.433 29.3577C252.557 29.4081 252.668 29.4458 252.767 29.471C252.891 29.4962 253.014 29.5088 253.138 29.5088C253.261 29.5088 253.385 29.4962 253.509 29.471C253.657 29.4458 253.793 29.4081 253.917 29.3577C254.114 29.6348 254.263 29.9496 254.362 30.3023C254.485 30.6297 254.634 30.9446 254.807 31.2469C254.584 31.7003 254.325 32.2418 254.028 32.8715C253.731 33.5013 253.41 34.131 253.064 34.7607C252.718 35.3904 252.347 35.995 251.951 36.5743C251.58 37.1285 251.209 37.5567 250.838 37.8589C250.764 37.9345 250.604 38.0227 250.356 38.1234C250.084 38.3249 249.837 38.5139 249.615 38.6902C249.392 38.8917 249.182 39.1184 248.984 39.3703C248.267 39.597 247.575 39.8992 246.907 40.2771C246.264 40.6549 245.622 41.0201 244.979 41.3728C244.682 41.2972 244.361 41.2594 244.015 41.2594C243.718 41.2594 243.421 41.272 243.124 41.2972C242.828 41.3476 242.506 41.3728 242.16 41.3728C242.061 41.2468 241.913 41.1587 241.715 41.1083C241.542 41.0831 241.48 40.9572 241.53 40.7305C240.689 40.6801 240.009 40.4408 239.49 40.0126C238.971 39.6096 238.526 39.1058 238.155 38.5013C237.809 37.8967 237.524 37.2418 237.302 36.5365C237.079 35.8312 236.844 35.1511 236.597 34.4962V34.3829C236.597 34.2569 236.647 34.1814 236.745 34.1562C236.844 34.131 236.894 34.0554 236.894 33.9295C236.894 33.8791 236.881 33.8413 236.857 33.8161C236.783 33.539 236.721 33.2997 236.671 33.0982C236.622 32.8967 236.597 32.6574 236.597 32.3804C236.597 31.9773 236.622 31.5869 236.671 31.2091C236.721 30.806 236.745 30.403 236.745 30C236.745 29.597 236.696 29.2443 236.597 28.9421C236.696 28.8161 236.783 28.6524 236.857 28.4509C236.906 28.2242 236.943 27.9975 236.968 27.7708C236.993 27.5441 237.005 27.3174 237.005 27.0907C237.03 26.864 237.067 26.6625 237.116 26.4861C237.017 26.2091 236.931 25.9698 236.857 25.7683C236.783 25.5416 236.745 25.2771 236.745 24.9748V24.7103C236.993 24.2821 237.203 23.8413 237.376 23.3879C237.549 22.9345 237.734 22.4685 237.932 21.9899V21.8766C237.932 21.1461 237.908 20.4156 237.858 19.6851C237.809 18.9547 237.784 18.2242 237.784 17.4937V16.7758C237.784 16.5239 237.796 16.2846 237.821 16.0579C238.019 15.9572 238.167 15.8186 238.266 15.6423C238.365 15.466 238.513 15.3275 238.711 15.2267H239.935L240.157 14.8489C240.232 14.7229 240.281 14.5844 240.306 14.4332C240.578 14.3577 240.837 14.2569 241.085 14.131C241.357 13.9798 241.604 13.8287 241.826 13.6776C242.173 13.4761 242.482 13.2997 242.754 13.1486C243.05 12.9723 243.335 12.8338 243.607 12.733C243.903 12.6071 244.212 12.5063 244.534 12.4307C244.855 12.3552 245.226 12.2922 245.646 12.2418C245.844 12.2418 245.968 12.204 246.017 12.1285C246.091 12.0529 246.19 11.9647 246.314 11.864C246.611 11.9144 246.907 11.9647 247.204 12.0151C247.501 12.0403 247.797 12.0529 248.094 12.0529C248.687 12.0529 249.244 11.9395 249.763 11.7128C250.505 11.7128 251.234 11.7003 251.951 11.6751C252.693 11.6499 253.435 11.6373 254.176 11.6373C254.819 11.6373 255.462 11.6625 256.105 11.7128C256.748 11.7632 257.378 11.8514 257.996 11.9773C258.219 11.9018 258.466 11.864 258.738 11.864C259.035 11.864 259.331 11.9018 259.628 11.9773C259.949 12.0277 260.259 12.0277 260.555 11.9773C260.58 12.2544 260.642 12.4937 260.741 12.6952C260.864 12.8715 260.926 13.0856 260.926 13.3375Z" fill="white"/>
<path d="M286.961 30.5667C286.961 30.8186 286.887 31.0327 286.739 31.2091C286.615 31.3602 286.454 31.4987 286.256 31.6247C286.083 31.7506 285.898 31.864 285.7 31.9647C285.527 32.0655 285.366 32.1914 285.218 32.3426C285.119 32.4433 285.045 32.5693 284.995 32.7204C284.971 32.8463 284.909 32.9345 284.81 32.9849C284.662 33.1108 284.501 33.1864 284.328 33.2116C284.155 33.2368 283.969 33.2746 283.772 33.3249C283.598 33.3501 283.425 33.4005 283.252 33.4761C283.079 33.5264 282.931 33.6398 282.807 33.8161C281.645 33.9421 280.496 34.1058 279.358 34.3073C278.246 34.5088 277.096 34.6096 275.909 34.6096C275.687 34.6096 275.439 34.6348 275.167 34.6851C274.92 34.7103 274.685 34.7355 274.463 34.7607C273.944 34.8111 273.424 34.8489 272.905 34.8741C272.411 34.8992 271.904 34.9118 271.385 34.9118C270.668 34.9118 269.951 34.8866 269.234 34.8363C268.517 34.7607 267.812 34.6474 267.12 34.4962C266.947 34.3703 266.749 34.2695 266.526 34.194C266.304 34.1184 266.069 34.0428 265.822 33.9673C265.599 33.8917 265.389 33.8035 265.191 33.7028C264.993 33.602 264.845 33.4509 264.746 33.2494C264.375 33.2242 264.041 33.1486 263.745 33.0227C263.473 32.8967 263.213 32.7582 262.966 32.6071C262.743 32.4307 262.508 32.2544 262.261 32.0781C262.014 31.9018 261.73 31.7506 261.408 31.6247C261.161 31.272 260.901 30.932 260.629 30.6045C260.382 30.2519 260.073 29.9622 259.702 29.7355C259.628 29.2569 259.504 28.7783 259.331 28.2997C259.183 27.8212 259.022 27.3552 258.849 26.9018C258.701 26.4232 258.577 25.9446 258.478 25.466C258.355 24.9874 258.293 24.4962 258.293 23.9924C258.293 23.6398 258.342 23.2116 258.441 22.7078C258.54 22.204 258.664 21.7003 258.812 21.1965C258.985 20.6675 259.183 20.1763 259.406 19.7229C259.628 19.2695 259.851 18.9043 260.073 18.6272C260.147 18.5516 260.234 18.4887 260.333 18.4383C260.432 18.3879 260.518 18.3123 260.592 18.2116C260.815 17.9597 261.05 17.7582 261.297 17.6071C261.544 17.4307 261.804 17.2292 262.076 17.0025C262.175 16.9018 262.249 16.7884 262.298 16.6625C262.372 16.5365 262.471 16.4232 262.595 16.3224C262.669 16.272 262.768 16.2594 262.892 16.2846C263.04 16.3098 263.164 16.2846 263.263 16.2091C263.361 16.1335 263.411 16.0453 263.411 15.9446C263.411 15.8438 263.448 15.7557 263.522 15.6801C263.547 15.6549 263.621 15.6549 263.745 15.6801C263.868 15.6801 263.942 15.6801 263.967 15.6801C264.14 15.6801 264.338 15.5668 264.561 15.3401C264.783 15.0882 264.969 14.9244 265.117 14.8489C265.29 14.7481 265.463 14.6851 265.636 14.6599C265.809 14.6096 265.995 14.534 266.192 14.4332C266.464 14.2821 266.724 14.1688 266.971 14.0932C267.243 13.9924 267.515 13.8791 267.787 13.7531C267.936 13.7028 268.071 13.6146 268.195 13.4887C268.319 13.3627 268.442 13.2746 268.566 13.2242C268.788 13.1486 269.023 13.0982 269.271 13.073C269.543 13.0227 269.79 12.9849 270.012 12.9597C270.26 12.9093 270.494 12.8589 270.717 12.8086C270.964 12.733 271.187 12.6071 271.385 12.4307H271.681C272.126 12.4307 272.559 12.3678 272.979 12.2418C273.4 12.1159 273.832 12.0529 274.277 12.0529C274.401 12.0529 274.586 12.0781 274.834 12.1285C275.031 12.0025 275.254 11.9395 275.501 11.9395C275.922 11.9395 276.342 12.0529 276.762 12.2796C277.182 12.4811 277.615 12.5819 278.06 12.5819H278.283C278.382 12.5819 278.481 12.5693 278.579 12.5441C278.851 12.8212 279.173 12.9723 279.544 12.9975C279.939 13.0227 280.273 13.136 280.545 13.3375C280.718 13.4887 280.854 13.665 280.953 13.8665C281.077 14.068 281.175 14.2821 281.25 14.5088L281.472 15.1889C281.546 15.4156 281.645 15.6171 281.769 15.7935C281.645 16.7003 281.274 17.4307 280.656 17.9849C280.063 18.5139 279.309 18.7783 278.394 18.7783C278.048 18.7783 277.751 18.7406 277.504 18.665C277.281 18.5642 277.071 18.4635 276.873 18.3627C276.7 18.262 276.515 18.1612 276.317 18.0605C276.119 17.9597 275.897 17.8841 275.65 17.8338C275.922 17.33 276.095 16.7884 276.169 16.2091C275.897 16.0831 275.625 15.995 275.353 15.9446C275.081 15.8942 274.821 15.806 274.574 15.6801C273.906 15.8564 273.251 15.9824 272.608 16.0579C271.99 16.1083 271.409 16.3728 270.865 16.8514C270.742 16.8262 270.606 16.801 270.457 16.7758C270.334 16.7506 270.21 16.738 270.087 16.738C269.938 16.738 269.641 16.8514 269.196 17.0781C268.751 17.2796 268.269 17.5189 267.75 17.796C267.256 18.073 266.773 18.3501 266.304 18.6272C265.859 18.9043 265.55 19.0932 265.377 19.194C265.179 19.3199 265.006 19.471 264.857 19.6474C264.709 19.8237 264.561 20.0126 264.412 20.2141C264.264 20.3904 264.116 20.5667 263.967 20.7431C263.819 20.8942 263.633 21.0076 263.411 21.0831C263.361 21.3602 263.275 21.5995 263.151 21.801C263.028 22.0025 262.892 22.2166 262.743 22.4433C262.719 22.8967 262.669 23.3501 262.595 23.8035C262.546 24.2569 262.521 24.7103 262.521 25.1637V25.6549C262.521 25.806 262.546 25.9446 262.595 26.0705C262.842 26.398 263.04 26.7632 263.188 27.1662C263.361 27.5693 263.646 27.8463 264.041 27.9975C264.066 28.0982 264.054 28.1612 264.004 28.1864C263.98 28.2116 263.955 28.2746 263.93 28.3753C264.078 28.6524 264.264 28.8791 264.486 29.0554C264.734 29.2065 264.981 29.3703 265.228 29.5466C265.475 29.6977 265.71 29.8615 265.933 30.0378C266.155 30.2141 266.328 30.4408 266.452 30.7179C266.823 30.7179 267.169 30.7809 267.49 30.9068C267.837 31.0327 268.158 31.1713 268.455 31.3224C268.776 31.4736 269.073 31.6121 269.345 31.738C269.641 31.864 269.938 31.9269 270.235 31.9269C270.507 31.9269 270.754 31.8892 270.977 31.8136C271.619 32.0151 272.262 32.1662 272.905 32.267C273.573 32.3426 274.24 32.3804 274.908 32.3804C275.724 32.3804 276.54 32.33 277.356 32.2292C278.171 32.1285 278.987 32.0403 279.803 31.9647C280.1 31.9144 280.384 31.8892 280.656 31.8892C280.928 31.8892 281.2 31.864 281.472 31.8136C281.818 31.7632 282.14 31.5995 282.436 31.3224C282.758 31.0453 283.067 30.8438 283.364 30.7179C283.636 30.8942 283.957 30.9824 284.328 30.9824C284.748 30.9824 285.156 30.9194 285.552 30.7934C285.947 30.6423 286.355 30.5667 286.776 30.5667H286.961Z" fill="white"/>
<path d="M316 35.4408C316 35.6423 315.913 35.806 315.74 35.932C315.567 36.0579 315.37 36.1839 315.147 36.3098L314.479 36.6499C314.257 36.7506 314.109 36.8892 314.034 37.0655C313.762 36.9899 313.49 36.9395 313.218 36.9144C312.971 36.8892 312.724 36.8766 312.477 36.8766C312.155 36.8766 311.822 36.9144 311.475 36.9899C311.129 37.0403 310.857 37.204 310.66 37.4811C310.536 37.4307 310.425 37.4055 310.326 37.4055H310.029C309.658 37.4055 309.275 37.4307 308.879 37.4811C308.508 37.5567 308.138 37.5945 307.767 37.5945C307.569 37.5945 307.371 37.5819 307.173 37.5567C307 37.5315 306.84 37.4559 306.691 37.33C306.469 37.4055 306.234 37.4433 305.987 37.4433C305.665 37.4433 305.356 37.3929 305.059 37.2922C304.763 37.1914 304.466 37.0781 304.169 36.9521C303.897 36.801 303.613 36.6625 303.316 36.5365C303.02 36.4106 302.723 36.3098 302.426 36.2343L302.167 35.7053C301.771 35.6297 301.4 35.5164 301.054 35.3652C300.733 35.1889 300.411 35 300.09 34.7985C299.768 34.597 299.447 34.4081 299.126 34.2317C298.829 34.0302 298.52 33.8917 298.198 33.8161C298.075 33.7154 297.963 33.6272 297.865 33.5516C297.766 33.4509 297.691 33.3123 297.642 33.136C297.321 33.0605 297.024 32.9597 296.752 32.8338L295.973 32.4181C295.726 32.267 295.442 32.1411 295.12 32.0403C294.823 31.9144 294.465 31.8388 294.045 31.8136C293.896 31.5869 293.686 31.3728 293.414 31.1713C293.142 30.9698 292.87 30.869 292.598 30.869C292.425 30.869 292.289 30.9068 292.19 30.9824V31.1713C292.19 31.4736 292.277 31.7758 292.45 32.0781C292.623 32.3804 292.845 32.5945 293.117 32.7204C293.093 32.7708 293.08 32.8463 293.08 32.9471C293.08 33.0982 293.105 33.2494 293.155 33.4005C293.229 33.5516 293.352 33.6524 293.525 33.7028C293.426 33.9798 293.303 34.2695 293.155 34.5718C293.006 34.8489 292.821 35.1133 292.598 35.3652C292.376 35.6171 292.128 35.8312 291.856 36.0076C291.609 36.1587 291.325 36.2343 291.004 36.2343C290.905 36.2846 290.83 36.3602 290.781 36.461C290.756 36.5617 290.732 36.6751 290.707 36.801C290.707 36.9018 290.682 37.0025 290.633 37.1033C290.608 37.204 290.558 37.2796 290.484 37.33C290.385 37.3552 290.249 37.3678 290.076 37.3678C289.829 37.3678 289.619 37.33 289.446 37.2544C289.273 37.1788 289.087 37.0781 288.89 36.9521V36.801C288.89 36.4987 288.828 36.2594 288.704 36.0831C288.605 35.9068 288.482 35.7431 288.333 35.5919C288.21 35.4156 288.086 35.2393 287.962 35.063C287.863 34.8867 287.814 34.6474 287.814 34.3451C287.74 34.3955 287.653 34.4332 287.554 34.4584C287.48 34.4836 287.431 34.534 287.406 34.6096C287.357 34.3577 287.332 34.1436 287.332 33.9673C287.332 33.4635 287.406 32.9849 287.554 32.5315C287.727 32.0781 287.814 31.5995 287.814 31.0957V30.529C287.814 29.9496 287.802 29.3829 287.777 28.8287C287.752 28.2746 287.74 27.7204 287.74 27.1662C287.74 26.6877 287.752 26.2217 287.777 25.7683C287.802 25.2897 287.851 24.8111 287.925 24.3325C288.197 22.67 288.42 21.0201 288.593 19.3829C288.791 17.7204 289.1 16.0705 289.52 14.4332C289.495 14.3073 289.458 14.1814 289.409 14.0554C289.384 13.9295 289.372 13.8035 289.372 13.6776C289.372 13.5768 289.384 13.5139 289.409 13.4887C289.508 12.9849 289.73 12.5693 290.076 12.2418C290.422 11.8892 290.868 11.7128 291.411 11.7128H291.523C291.819 11.8388 292.042 12.0277 292.19 12.2796C292.363 12.5063 292.623 12.5945 292.969 12.5441C292.969 12.5945 292.957 12.6448 292.932 12.6952C292.932 12.7456 292.932 12.796 292.932 12.8463C292.932 13.1234 293.006 13.3249 293.155 13.4509C293.303 13.5768 293.476 13.7154 293.674 13.8665C293.55 14.1184 293.464 14.4081 293.414 14.7355C293.389 15.063 293.365 15.3904 293.34 15.7179C293.315 16.0453 293.266 16.3602 293.192 16.6625C293.142 16.9647 293.031 17.2166 292.858 17.4181C292.957 17.67 293.019 17.9219 293.043 18.1738C293.068 18.4257 293.08 18.6902 293.08 18.9673C293.08 19.2443 293.068 19.534 293.043 19.8363C293.019 20.1133 293.006 20.403 293.006 20.7053C293.006 20.9824 293.043 21.2343 293.117 21.461C293.661 21.461 293.97 21.1965 294.045 20.6675C294.687 20.4912 295.256 20.2519 295.751 19.9496C296.27 19.6222 296.764 19.2821 297.234 18.9295C297.704 18.5768 298.161 18.2116 298.606 17.8338C299.076 17.4559 299.595 17.1285 300.164 16.8514V16.7758C300.164 16.6499 300.201 16.5743 300.275 16.5491C300.349 16.4987 300.362 16.3854 300.312 16.2091C300.683 16.0831 300.992 15.9194 301.239 15.7179C301.511 15.4912 301.759 15.2519 301.981 15L302.686 14.2065C302.933 13.9295 303.205 13.6902 303.502 13.4887C303.7 13.0605 303.873 12.6071 304.021 12.1285C304.194 11.6499 304.417 11.2091 304.689 10.806C305.158 10.806 305.665 10.8438 306.209 10.9194C306.778 10.995 307.26 11.1713 307.655 11.4484C307.606 11.6499 307.693 11.7884 307.915 11.864C307.643 12.9219 307.235 13.8791 306.691 14.7355C306.147 15.5668 305.443 16.272 304.577 16.8514C304.454 17.1285 304.293 17.3678 304.095 17.5693C303.897 17.7708 303.7 17.9723 303.502 18.1738C303.304 18.3501 303.106 18.539 302.908 18.7406C302.711 18.9421 302.55 19.1814 302.426 19.4584C302.13 19.5088 301.87 19.597 301.647 19.7229C301.45 19.8489 301.252 20 301.054 20.1763C300.881 20.3275 300.683 20.4786 300.461 20.6297C300.263 20.7557 300.04 20.8564 299.793 20.932C299.595 21.1839 299.36 21.398 299.088 21.5743C298.841 21.7506 298.582 21.927 298.31 22.1033C298.062 22.2544 297.827 22.4307 297.605 22.6322C297.382 22.8086 297.222 23.0479 297.123 23.3501H296.159C295.887 23.8287 295.528 24.2317 295.083 24.5592C294.663 24.8615 294.23 25.1511 293.785 25.4282C293.859 25.7305 293.995 25.9824 294.193 26.1839C294.391 26.3602 294.601 26.5239 294.823 26.6751C295.071 26.8262 295.306 26.9899 295.528 27.1662C295.775 27.3174 295.985 27.5063 296.159 27.733C297.197 28.136 298.198 28.602 299.163 29.131C300.127 29.6348 301.042 30.2519 301.907 30.9824C301.956 30.9572 302.018 30.9446 302.092 30.9446C302.29 30.9446 302.451 31.0076 302.575 31.1335C302.698 31.2343 302.871 31.272 303.094 31.2469C303.193 31.4987 303.329 31.6751 303.502 31.7758C303.675 31.8514 303.848 31.9144 304.021 31.9647C304.219 32.0151 304.404 32.0907 304.577 32.1914C304.75 32.2922 304.874 32.4685 304.948 32.7204C305.319 32.7456 305.653 32.8212 305.949 32.9471C306.271 33.073 306.555 33.2746 306.802 33.5516H307.248C308.039 33.5516 308.805 33.6272 309.547 33.7783C310.289 33.9295 311.043 34.005 311.809 34.005C312.205 34.005 312.588 33.9798 312.959 33.9295C313.33 33.8539 313.688 33.728 314.034 33.5516C314.158 33.6272 314.294 33.7028 314.442 33.7783C314.591 33.8539 314.751 33.8917 314.924 33.8917C315.048 33.8917 315.234 33.8665 315.481 33.8161C315.505 34.0932 315.592 34.3577 315.74 34.6096C315.913 34.8615 316 35.1385 316 35.4408Z" fill="white"/>
</svg>
